<?xml version="1.0" standalone="no"?>
<!DOCTYPE svg PUBLIC "-//W3C//DTD SVG 20010904//EN"
 "http://www.w3.org/TR/2001/REC-SVG-20010904/DTD/svg10.dtd">
<svg version="1.0" xmlns="http://www.w3.org/2000/svg"
 width="1200.000000pt" height="1200.000000pt" viewBox="0 0 1200.000000 1200.000000"
 preserveAspectRatio="xMidYMid meet">

<g transform="translate(0.000000,1200.000000) scale(0.100000,-0.100000)"
fill="white" stroke="none">
<path d="M5904 9821 c-78 -36 -2369 -1403 -2403 -1435 -65 -61 -89 -167 -58
-256 19 -52 292 -434 339 -474 81 -70 179 -70 305 0 34 19 64 34 67 34 3 0 6
-344 6 -765 l0 -765 -965 0 -965 0 0 -340 0 -340 -231 0 c-199 0 -230 -2 -226
-15 4 -8 108 -163 232 -344 l225 -330 0 -145 0 -144 -230 -338 c-126 -186
-230 -341 -230 -346 0 -4 103 -8 230 -8 l230 0 2 -827 3 -828 3763 -3 3762 -2
0 830 0 830 236 0 c196 0 235 2 231 14 -3 7 -109 166 -236 352 l-231 338 0
129 0 129 233 341 c127 188 233 347 235 354 3 10 -47 13 -232 13 l-236 0 0
340 0 340 -960 0 -960 0 0 769 0 769 71 -41 c58 -33 84 -42 134 -45 71 -5 146
22 188 66 43 46 327 503 338 546 19 72 -11 173 -69 231 -27 28 -2353 1351
-2416 1375 -43 16 -136 12 -182 -9z m1290 -802 c644 -364 1181 -671 1194 -682
43 -39 32 -66 -123 -312 -80 -126 -153 -236 -162 -242 -9 -7 -26 -13 -38 -13
-12 0 -456 259 -986 576 -530 318 -984 583 -1009 591 -58 18 -125 11 -187 -20
-26 -14 -473 -280 -992 -591 -1001 -600 -965 -581 -1014 -538 -10 9 -78 102
-152 208 -88 125 -135 201 -135 217 0 14 10 37 23 51 33 37 2356 1416 2386
1416 14 0 521 -281 1195 -661z m-338 -732 l824 -492 0 -1157 0 -1158 -1680 0
-1680 0 0 1158 0 1157 308 185 c1145 688 1357 811 1380 805 13 -3 395 -227
848 -498z m-2696 -2547 l0 -260 -880 0 -880 0 0 260 0 260 880 0 880 0 0 -260z
m5440 0 l0 -260 -880 0 -880 0 0 260 0 260 880 0 880 0 0 -260z m-3275 -457
c10 -26 140 -380 245 -668 50 -137 119 -325 153 -417 l62 -168 42 0 c36 0 43
-3 43 -20 0 -20 -7 -20 -305 -20 -298 0 -305 0 -305 20 0 18 7 20 64 20 l64 0
-65 195 -65 195 -183 0 c-181 0 -183 0 -188 -22 -2 -13 -32 -99 -66 -192 -33
-93 -61 -171 -61 -173 0 -1 29 -3 65 -3 58 0 65 -2 65 -20 0 -19 -7 -20 -140
-20 -132 0 -140 1 -140 19 0 16 8 20 42 23 l43 3 234 633 235 632 77 0 c64 0
78 -3 84 -17z m-3269 -20 c3 -16 10 -41 14 -58 5 -16 39 -147 75 -290 109
-426 136 -530 144 -538 4 -4 22 55 39 130 18 76 50 217 72 313 23 96 54 231
70 300 17 69 32 135 35 148 l5 22 248 -2 c239 -3 247 -4 247 -23 0 -17 -8 -20
-47 -23 l-48 -3 0 -605 0 -604 50 0 c43 0 50 -3 50 -20 0 -20 -7 -20 -285 -20
-278 0 -285 0 -285 20 0 17 7 20 50 20 l50 0 -1 568 c0 312 -2 563 -4 557 -2
-5 -20 -77 -38 -160 -19 -82 -64 -278 -101 -435 -36 -157 -81 -348 -99 -425
l-32 -140 -120 -3 -120 -2 -124 457 c-68 252 -134 499 -148 548 -54 198 -51
221 -52 -397 l-1 -568 50 0 c43 0 50 -3 50 -20 0 -19 -7 -20 -125 -20 -118 0
-125 1 -125 20 0 17 7 20 50 20 l50 0 0 605 0 605 -50 0 c-47 0 -50 2 -50 25
l0 25 250 0 250 0 6 -27z m1544 2 c8 -22 109 -409 202 -777 18 -70 34 -125 36
-123 3 2 11 30 18 62 29 121 128 545 163 698 l37 160 247 3 247 2 0 -25 c0
-23 -3 -25 -50 -25 l-50 0 0 -605 0 -605 50 0 c43 0 50 -3 50 -20 0 -20 -7
-20 -280 -20 -273 0 -280 0 -280 20 0 17 7 20 50 20 l50 0 0 567 c0 311 -2
564 -4 562 -2 -2 -34 -132 -70 -289 -36 -157 -84 -361 -106 -455 -22 -93 -51
-219 -65 -280 -14 -60 -28 -118 -31 -127 -5 -16 -20 -18 -123 -18 l-118 0 -38
143 c-21 78 -48 178 -60 222 -13 44 -66 242 -120 440 -54 198 -99 362 -101
364 -2 2 -4 -251 -4 -562 l0 -567 50 0 c43 0 50 -3 50 -20 0 -19 -7 -20 -130
-20 -123 0 -130 1 -130 20 0 17 7 20 50 20 l50 0 0 605 0 605 -44 0 c-46 0
-62 11 -52 35 4 13 45 15 251 15 l245 0 10 -25z m2890 0 c0 -22 -4 -24 -59
-27 l-59 -3 110 -195 c60 -107 114 -203 119 -213 9 -15 32 17 143 195 l133
213 -91 5 c-83 5 -91 7 -91 25 0 19 7 20 190 20 189 0 190 0 193 -22 3 -22 0
-23 -60 -23 l-64 0 -152 -244 c-84 -135 -152 -247 -152 -249 0 -3 32 -60 72
-128 39 -68 108 -187 153 -264 44 -77 105 -182 135 -232 l54 -93 53 0 c46 0
53 -3 53 -20 0 -20 -7 -20 -320 -20 -311 0 -320 1 -320 20 0 16 8 19 60 22
l59 3 -131 233 c-72 128 -134 230 -139 225 -4 -4 -69 -109 -144 -233 l-136
-225 96 -3 c87 -2 95 -4 95 -22 0 -19 -8 -20 -195 -20 -188 0 -195 1 -195 20
0 18 7 20 63 20 l63 0 157 266 c87 146 157 271 155 279 -2 7 -86 160 -188 339
l-185 326 -52 0 c-45 0 -53 3 -53 18 0 10 3 22 7 25 3 4 145 7 315 7 l308 0 0
-25z m1310 0 c0 -22 -4 -24 -59 -27 l-59 -3 110 -195 c60 -107 114 -203 119
-213 9 -16 31 13 143 195 l133 213 -91 5 c-83 5 -91 7 -91 25 0 19 7 20 190
20 189 0 190 0 193 -22 3 -22 0 -23 -60 -23 l-63 0 -153 -245 c-85 -135 -152
-249 -150 -253 2 -5 95 -167 207 -360 l205 -352 53 0 c46 0 53 -3 53 -20 0
-20 -7 -20 -320 -20 -311 0 -320 1 -320 20 0 16 8 19 60 22 l60 3 -129 228
c-71 126 -132 229 -137 229 -4 0 -70 -103 -146 -228 l-138 -229 95 -3 c87 -2
95 -4 95 -22 0 -19 -8 -20 -195 -20 -188 0 -195 1 -195 20 0 18 7 20 63 20
l63 0 157 266 c87 146 157 271 155 279 -2 8 -86 160 -188 339 l-185 326 -52 0
c-45 0 -53 3 -53 18 0 10 3 22 7 25 3 4 145 7 315 7 l308 0 0 -25z m-4640
-2200 l0 -745 -880 0 -880 0 0 745 0 745 880 0 880 0 0 -745z m3520 0 l0 -745
-1680 0 -1680 0 0 745 0 745 1680 0 1680 0 0 -745z m1920 0 l0 -745 -880 0
-880 0 0 745 0 745 880 0 880 0 0 -745z"/>
<path d="M5200 7200 l0 -80 160 0 160 0 0 80 0 80 -160 0 -160 0 0 -80z"/>
<path d="M6480 7200 l0 -80 160 0 160 0 0 80 0 80 -160 0 -160 0 0 -80z"/>
<path d="M5200 6240 l0 -80 160 0 160 0 0 80 0 80 -160 0 -160 0 0 -80z"/>
<path d="M6480 6240 l0 -80 160 0 160 0 0 80 0 80 -160 0 -160 0 0 -80z"/>
<path d="M6080 4928 c0 -3 -36 -105 -80 -228 -44 -123 -78 -225 -76 -227 2 -2
73 -2 158 -1 l156 3 -75 225 c-65 198 -83 247 -83 228z"/>
<path d="M3120 3200 l0 -80 160 0 160 0 0 80 0 80 -160 0 -160 0 0 -80z"/>
<path d="M5200 3360 l0 -80 160 0 160 0 0 80 0 80 -160 0 -160 0 0 -80z"/>
<path d="M6480 3360 l0 -80 160 0 160 0 0 80 0 80 -160 0 -160 0 0 -80z"/>
<path d="M8560 3200 l0 -80 160 0 160 0 0 80 0 80 -160 0 -160 0 0 -80z"/>
</g>
</svg>
